<?xml version="1.0" standalone="no"?>
<!DOCTYPE svg PUBLIC "-//W3C//DTD SVG 20010904//EN"
 "http://www.w3.org/TR/2001/REC-SVG-20010904/DTD/svg10.dtd">
<svg version="1.0" xmlns="http://www.w3.org/2000/svg"
 width="1502.000000pt" height="1502.000000pt" viewBox="0 0 1502.000000 1502.000000"
 preserveAspectRatio="xMidYMid meet">

<g transform="translate(0.000000,1502.000000) scale(0.100000,-0.100000)"
fill="#000000" stroke="none">
<rect x="0" y="0" width="15020" height="15020" rx="1502" ry="1502" fill="white"/>
<path d="M12990 12750 c-299 -42 -576 -146 -946 -356 -247 -139 -586 -393
-894 -668 -268 -239 -637 -626 -886 -927 -360 -436 -461 -567 -785 -1019 -251
-350 -830 -1215 -1157 -1730 -58 -91 -140 -215 -184 -277 -91 -129 -57 -114
-323 -137 -273 -24 -448 -28 -645 -17 -709 43 -1217 177 -1661 441 -213 127
-393 284 -522 455 -163 217 -227 351 -273 570 -54 253 -32 585 56 847 64 193
174 398 307 575 71 95 283 310 378 385 438 343 981 582 1640 722 656 140 1404
162 2017 60 195 -33 208 -30 208 45 0 31 -5 53 -15 61 -36 30 -414 92 -710
116 -223 18 -820 15 -1015 -5 -568 -59 -1181 -199 -1590 -363 -559 -223 -1046
-562 -1342 -933 -184 -232 -320 -499 -387 -762 -57 -220 -66 -568 -21 -776 42
-197 157 -453 273 -610 84 -114 252 -280 376 -371 122 -91 357 -231 485 -291
355 -166 927 -315 1371 -359 387 -38 623 -44 930 -21 241 18 235 18 235 4 0
-12 -330 -503 -459 -683 -129 -179 -333 -444 -470 -611 -406 -494 -742 -815
-1252 -1193 -16 -12 -44 -8 -201 26 -493 109 -866 169 -1333 214 -172 17 -996
16 -1200 0 -449 -37 -824 -117 -1131 -243 -354 -144 -575 -324 -652 -530 -44
-119 -48 -275 -9 -388 66 -191 291 -354 592 -427 235 -57 356 -69 680 -69 515
1 903 56 1475 211 487 132 1141 399 1513 618 52 31 104 56 115 56 10 0 93 -22
183 -49 1168 -351 1842 -500 2619 -578 251 -25 827 -25 1030 0 406 50 708 147
943 304 162 108 359 310 394 406 29 79 4 137 -59 137 -26 0 -40 -10 -77 -53
-89 -102 -238 -243 -314 -295 -159 -109 -352 -186 -567 -224 -117 -20 -551
-17 -720 5 -368 49 -702 132 -1520 377 -446 133 -831 243 -1102 316 -98 26
-178 50 -178 53 1 3 66 48 145 100 671 436 1345 1097 1945 1906 101 135 383
551 467 686 l41 66 78 17 c1087 231 2124 724 3079 1464 736 571 1323 1218
1674 1846 218 391 333 810 318 1156 -17 380 -211 631 -548 705 -87 19 -326 28
-419 15z m276 -211 c165 -30 308 -178 355 -369 8 -33 13 -108 13 -190 -1 -113
-5 -154 -29 -250 -55 -228 -161 -497 -270 -690 -381 -674 -851 -1224 -1550
-1816 -96 -81 -390 -304 -510 -386 -520 -357 -1211 -702 -1775 -888 -215 -70
-509 -154 -517 -147 -6 7 7 28 148 255 35 56 93 150 129 209 36 59 89 146 119
193 30 47 122 198 206 335 258 425 286 471 475 775 328 529 687 1047 1008
1460 317 406 812 910 1102 1121 263 192 549 333 770 380 97 20 239 24 326 8z
m-9875 -7705 c444 -41 992 -137 1482 -259 141 -36 259 -65 262 -65 3 0 5 -4 5
-10 0 -25 -405 -225 -715 -353 -686 -282 -1509 -457 -2035 -432 -412 20 -727
120 -854 272 -53 63 -71 119 -71 223 0 90 2 98 36 160 78 143 332 297 624 378
361 101 790 130 1266 86z"/>
</g>
</svg>
